<?xml version="1.0" encoding="utf-8"?>
<!-- Generator: Adobe Illustrator 17.0.0, SVG Export Plug-In . SVG Version: 6.00 Build 0)  -->
<!DOCTYPE svg PUBLIC "-//W3C//DTD SVG 1.1//EN" "http://www.w3.org/Graphics/SVG/1.1/DTD/svg11.dtd">
<svg version="1.1" id="图层_1" xmlns="http://www.w3.org/2000/svg" xmlns:xlink="http://www.w3.org/1999/xlink" x="0px" y="0px"
	 width="15px" height="15px" viewBox="0 0 15 15" enable-background="new 0 0 15 15" xml:space="preserve">
<g>
	<g>
		<path fill="#B9B9B9" d="M3.659,11.725h-0.69c-1.683,0-2.952-1.262-2.952-2.937s1.269-2.937,2.952-2.937h0.69V11.725z"/>
	</g>
	<g>
		<path fill="#B9B9B9" d="M12.048,11.725h-0.69V5.851h0.69C13.731,5.851,15,7.114,15,8.789S13.731,11.725,12.048,11.725z"/>
	</g>
	<g>
		<path fill="#B9B9B9" d="M11.78,13.976v-1.373c0.098,0,0.215-0.037,0.215-0.213h1.38C13.375,13.294,12.689,13.976,11.78,13.976z"/>
	</g>
	<g>
		<rect x="9.97" y="12.603" fill="#B9B9B9" width="1.809" height="1.373"/>
	</g>
	<g>
		<path fill="#B9B9B9" d="M8.979,15c-0.966,0-1.752-0.782-1.752-1.744c0-0.961,0.786-1.744,1.752-1.744
			c0.967,0,1.753,0.782,1.753,1.744C10.733,14.218,9.946,15,8.979,15z"/>
	</g>
	<g>
		<path fill="#B9B9B9" d="M12.708,5.19h-1.38c0-2.105-1.72-3.817-3.834-3.817c-2.114,0-3.834,1.712-3.834,3.817h-1.38
			C2.279,2.328,4.618,0,7.493,0S12.708,2.328,12.708,5.19z"/>
	</g>
</g>
</svg>
