<?xml version="1.0" encoding="utf-8"?>
<!-- Generator: Adobe Illustrator 16.0.0, SVG Export Plug-In . SVG Version: 6.00 Build 0)  -->
<!DOCTYPE svg PUBLIC "-//W3C//DTD SVG 1.1//EN" "http://www.w3.org/Graphics/SVG/1.1/DTD/svg11.dtd">
<svg version="1.1" id="Layer_1" xmlns="http://www.w3.org/2000/svg" xmlns:xlink="http://www.w3.org/1999/xlink" x="0px" y="0px"
	 width="14.49px" height="13.48px" viewBox="0 0 14.49 13.48" enable-background="new 0 0 14.49 13.48" xml:space="preserve">
<polygon fill="#fff" points="0,1.998 0,0 2.872,0 5.244,7.824 13.484,7.824 13.484,9.738 3.705,9.738 1.498,1.998 "/>
<g id="Ellipse_1_2_">
	<g>
		<path fill-rule="evenodd" clip-rule="evenodd" fill="#fff" d="M6.243,10.987c-0.69,0-1.249,0.56-1.249,1.249
			s0.559,1.248,1.249,1.248c0.689,0,1.249-0.559,1.249-1.248S6.933,10.987,6.243,10.987z M11.238,10.987
			c-0.691,0-1.25,0.56-1.25,1.249s0.559,1.248,1.25,1.248c0.689,0,1.248-0.559,1.248-1.248S11.928,10.987,11.238,10.987z"/>
	</g>
</g>
<g id="Shape_2_2_">
	<g>
		<polygon fill="#fff" points="4.995,1.998 6.493,6.992 13.484,6.992 14.484,1.998 		"/>
	</g>
</g>
</svg>
