<?xml version="1.0" encoding="utf-8"?>
<!-- Generator: Adobe Illustrator 17.0.0, SVG Export Plug-In . SVG Version: 6.00 Build 0)  -->
<!DOCTYPE svg PUBLIC "-//W3C//DTD SVG 1.1//EN" "http://www.w3.org/Graphics/SVG/1.1/DTD/svg11.dtd">
<svg version="1.1" id="图层_1" xmlns="http://www.w3.org/2000/svg" xmlns:xlink="http://www.w3.org/1999/xlink" x="0px" y="0px"
	 width="13px" height="14px" viewBox="0 0 13 14" enable-background="new 0 0 13 14" xml:space="preserve">
<g>
	<rect x="3" y="11" fill="none" width="7" height="1"/>
	<rect x="3" y="8" fill="none" width="6" height="1"/>
	<polygon fill="#006EC5" points="9,0 9,5 13,5 	"/>
	<path fill="#006EC5" d="M8,5V0H1C0.448,0,0,0.418,0,0.933v12.133C0,13.582,0.448,14,1,14h11c0.552,0,1-0.418,1-0.933V6H9
		C8.448,6,8,5.515,8,5z M3,8h6v1H3V8z M10,12H3v-1h7V12z"/>
</g>
</svg>
